<svg xmlns="http://www.w3.org/2000/svg" viewBox="0 0 1024 1024">
  <!-- Benefit Navigator — M1 combat helmet, side profile: flared rim, rim-thickness
       shadow band, hanging chinstrap. Two-tone cream for depth; gold star. -->
  <rect width="1024" height="1024" fill="#20355E"/>
  <path d="M 232 618
           C 224 588, 244 566, 268 556
           C 292 420, 380 312, 512 306
           C 656 300, 762 412, 776 556
           C 800 566, 820 590, 810 620
           C 730 660, 610 676, 512 676
           C 414 676, 300 656, 232 618 Z" fill="#F5F1E8"/>
  <path d="M 232 618
           C 300 656, 414 676, 512 676
           C 610 676, 730 660, 810 620
           C 736 690, 618 712, 512 712
           C 406 712, 296 682, 232 618 Z" fill="#CFC7B4"/>
  <path d="M 392 700 C 428 806, 596 806, 640 694" fill="none" stroke="#CFC7B4" stroke-width="30" stroke-linecap="round"/>
  <circle cx="516" cy="782" r="24" fill="#CFC7B4"/>
  <path d="M512 400 L534 456 L594 460 L548 498 L562 557 L512 525 L462 557 L476 498 L430 460 L490 456 Z" fill="#E8B44A"/>
</svg>
